<?xml version="1.0" encoding="UTF-8"?> <!-- Generator: Adobe Illustrator 25.1.0, SVG Export Plug-In . SVG Version: 6.00 Build 0) --> <svg xmlns="http://www.w3.org/2000/svg" xmlns:xlink="http://www.w3.org/1999/xlink" version="1.1" id="Capa_1" x="0px" y="0px" viewBox="0 0 228.3 69.1" style="enable-background:new 0 0 228.3 69.1;" xml:space="preserve"> <style type="text/css"> .st0{fill:url(#SVGID_1_);} </style> <linearGradient id="SVGID_1_" gradientUnits="userSpaceOnUse" x1="0" y1="34.5381" x2="228.3075" y2="34.5381"> <stop offset="0" style="stop-color:#FFDD91"></stop> <stop offset="3.195160e-02" style="stop-color:#E9C77E"></stop> <stop offset="0.1089" style="stop-color:#DEB66F"></stop> <stop offset="0.1194" style="stop-color:#DAB06A"></stop> <stop offset="0.1906" style="stop-color:#BF8D4A"></stop> <stop offset="0.2289" style="stop-color:#B5803E"></stop> <stop offset="0.2998" style="stop-color:#CA9D58"></stop> <stop offset="0.3876" style="stop-color:#E9C77E"></stop> <stop offset="0.4397" style="stop-color:#F2D086"></stop> <stop offset="0.542" style="stop-color:#FFDD91"></stop> <stop offset="0.6883" style="stop-color:#E9C77E"></stop> <stop offset="0.6994" style="stop-color:#E3BF77"></stop> <stop offset="0.7554" style="stop-color:#CA9D58"></stop> <stop offset="0.8015" style="stop-color:#BB8845"></stop> <stop offset="0.8318" style="stop-color:#B5803E"></stop> <stop offset="0.8888" style="stop-color:#CA9D58"></stop> <stop offset="0.9594" style="stop-color:#E9C77E"></stop> <stop offset="0.9731" style="stop-color:#F2CF84"></stop> <stop offset="1" style="stop-color:#FFDB8D"></stop> </linearGradient> <path class="st0" d="M98.1,59l1-0.3L98,61.1l-0.7-0.3L98.1,59z M8.5,64H4.9v0.7h2.9v0.1c0,0.3,0,0.5-0.1,0.8 c-0.1,0.3-0.1,0.5-0.2,0.7v0c-0.2,0.3-0.3,0.6-0.6,0.9c-0.2,0.3-0.5,0.5-0.7,0.7C6,68,5.7,68.1,5.4,68.2c-0.3,0.1-0.6,0.1-0.9,0.1 c-0.4,0-0.9-0.1-1.3-0.3c-0.4-0.2-0.8-0.4-1.1-0.7c-0.3-0.3-0.6-0.7-0.7-1.1c-0.2-0.4-0.3-0.9-0.3-1.4c0-0.4,0.1-0.9,0.3-1.3 c0.2-0.4,0.4-0.8,0.7-1.1c0.3-0.3,0.7-0.6,1.1-0.8c0.4-0.2,0.9-0.3,1.3-0.3c0.2,0,0.5,0,0.7,0.1c0.3,0.1,0.6,0.2,0.9,0.3l0.2-0.7 c-0.3-0.1-0.7-0.2-1-0.3c-0.3-0.1-0.6-0.1-0.8-0.1c-0.5,0-1.1,0.1-1.5,0.3C2.4,61.3,2,61.6,1.6,62c-0.4,0.4-0.7,0.8-0.9,1.3 c-0.2,0.5-0.3,1-0.3,1.6c0,0.6,0.1,1.1,0.3,1.6c0.2,0.5,0.5,0.9,0.9,1.3c0.4,0.4,0.8,0.7,1.3,0.9c0.5,0.2,1,0.3,1.6,0.3 c0.4,0,0.7-0.1,1.1-0.2c0.4-0.1,0.7-0.3,1-0.5c0.3-0.2,0.6-0.5,0.9-0.8c0.3-0.3,0.5-0.6,0.7-1c0.1-0.2,0.2-0.5,0.2-0.9 c0-0.3,0.1-0.7,0.1-1c0-0.1,0-0.2,0-0.4C8.5,64.2,8.5,64.1,8.5,64z M16.3,64.5H19v-0.7h-2.7v-2.3h4v-0.7h-4.7v8h4.9v-0.7h-4.3V64.5z M27.8,60.9h-0.7v8h5.3v-0.7h-4.6V60.9z M43.3,64.8c0.6,1.3,1.1,2.7,1.7,4L44.3,69l-1.3-3h-2.8l-1.3,3l-0.6-0.2l3.3-8 C42.1,62.1,42.7,63.4,43.3,64.8z M42.8,65.4l-1.2-3c-0.1,0.2-0.1,0.4-0.2,0.6c-0.1,0.2-0.2,0.4-0.2,0.7c-0.1,0.2-0.2,0.5-0.3,0.8 c-0.1,0.3-0.2,0.6-0.4,1H42.8z M49.9,61.6H53v7.4h0.7v-7.4h3.1v-0.7h-6.9V61.6z M70.3,63.3c0.2,0.5,0.3,1,0.3,1.6s-0.1,1.1-0.3,1.6 c-0.2,0.5-0.5,0.9-0.9,1.3c-0.4,0.4-0.8,0.7-1.3,0.9c-0.5,0.2-1,0.3-1.6,0.3c-0.6,0-1.1-0.1-1.6-0.3c-0.5-0.2-0.9-0.5-1.3-0.9 c-0.4-0.4-0.7-0.8-0.9-1.3c-0.2-0.5-0.3-1-0.3-1.6s0.1-1.1,0.3-1.6c0.2-0.5,0.5-0.9,0.9-1.3c0.4-0.4,0.8-0.7,1.3-0.9 c0.5-0.2,1-0.3,1.6-0.3c0.6,0,1.1,0.1,1.6,0.3c0.5,0.2,0.9,0.5,1.3,0.9C69.8,62.4,70.1,62.8,70.3,63.3z M70,64.9 c0-0.5-0.1-0.9-0.3-1.3c-0.2-0.4-0.4-0.8-0.7-1.1c-0.3-0.3-0.7-0.6-1.1-0.7c-0.4-0.2-0.9-0.3-1.3-0.3c-0.5,0-0.9,0.1-1.3,0.3 c-0.4,0.2-0.8,0.4-1.1,0.7c-0.3,0.3-0.6,0.7-0.7,1.1c-0.2,0.4-0.3,0.9-0.3,1.3c0,0.5,0.1,0.9,0.3,1.3c0.2,0.4,0.4,0.8,0.7,1.1 c0.3,0.3,0.7,0.6,1.1,0.7c0.4,0.2,0.9,0.3,1.3,0.3c0.5,0,0.9-0.1,1.3-0.3c0.4-0.2,0.8-0.4,1.1-0.7c0.3-0.3,0.6-0.7,0.7-1.1 C69.9,65.9,70,65.4,70,64.9z M95.2,63.4c0.2,0.5,0.3,1,0.3,1.6c0,0.6-0.1,1.1-0.3,1.6c-0.2,0.5-0.5,0.9-0.9,1.3 c-0.4,0.4-0.8,0.6-1.3,0.9c-0.5,0.2-1,0.3-1.6,0.3H89v-8h2.5c0.6,0,1.1,0.1,1.6,0.3c0.5,0.2,0.9,0.5,1.3,0.9 C94.7,62.4,95,62.9,95.2,63.4z M94.9,64.9c0-0.5-0.1-0.9-0.3-1.3c-0.2-0.4-0.4-0.8-0.7-1.1c-0.3-0.3-0.7-0.5-1.1-0.7 c-0.4-0.2-0.8-0.3-1.3-0.3h-1.8v6.7h1.8c0.5,0,0.9-0.1,1.3-0.3c0.4-0.2,0.8-0.4,1.1-0.7c0.3-0.3,0.5-0.7,0.7-1.1 C94.8,65.8,94.9,65.4,94.9,64.9z M111.9,64.5h2.7v-0.7h-2.7v-2.3h4v-0.7h-4.7v8h4.9v-0.7h-4.3V64.5z M127.6,68.1 c-0.4,0.2-0.8,0.2-1.2,0.2c-0.5,0-0.9-0.1-1.3-0.3c-0.4-0.2-0.8-0.4-1.1-0.7c-0.3-0.3-0.6-0.7-0.7-1.1c-0.2-0.4-0.3-0.9-0.3-1.3 c0-0.5,0.1-0.9,0.3-1.3c0.2-0.4,0.4-0.8,0.7-1.1c0.3-0.3,0.7-0.6,1.1-0.7c0.4-0.2,0.9-0.3,1.3-0.3c0.7,0,1.4,0.2,2.1,0.7l0.5-0.4 c-0.4-0.3-0.9-0.5-1.3-0.7c-0.4-0.2-0.9-0.2-1.3-0.2c-0.6,0-1.1,0.1-1.6,0.3c-0.5,0.2-0.9,0.5-1.3,0.9c-0.4,0.4-0.7,0.8-0.9,1.3 c-0.2,0.5-0.3,1-0.3,1.6c0,0.6,0.1,1.1,0.3,1.6c0.2,0.5,0.5,0.9,0.9,1.3c0.4,0.4,0.8,0.7,1.3,0.9c0.5,0.2,1,0.3,1.6,0.3 c0.5,0,1-0.1,1.5-0.3c0.5-0.2,0.9-0.5,1.4-0.8l-0.5-0.5C128.4,67.7,128,67.9,127.6,68.1z M140.4,68.1c-0.4,0.2-0.8,0.2-1.2,0.2 c-0.5,0-0.9-0.1-1.3-0.3c-0.4-0.2-0.8-0.4-1.1-0.7c-0.3-0.3-0.6-0.7-0.7-1.1c-0.2-0.4-0.3-0.9-0.3-1.3c0-0.5,0.1-0.9,0.3-1.3 c0.2-0.4,0.4-0.8,0.7-1.1c0.3-0.3,0.7-0.6,1.1-0.7c0.4-0.2,0.9-0.3,1.3-0.3c0.7,0,1.4,0.2,2.1,0.7l0.5-0.4c-0.4-0.3-0.9-0.5-1.3-0.7 c-0.4-0.2-0.9-0.2-1.3-0.2c-0.6,0-1.1,0.1-1.6,0.3c-0.5,0.2-0.9,0.5-1.3,0.9c-0.4,0.4-0.7,0.8-0.9,1.3c-0.2,0.5-0.3,1-0.3,1.6 c0,0.6,0.1,1.1,0.3,1.6c0.2,0.5,0.5,0.9,0.9,1.3c0.4,0.4,0.8,0.7,1.3,0.9c0.5,0.2,1,0.3,1.6,0.3c0.5,0,1-0.1,1.5-0.3 c0.5-0.2,0.9-0.5,1.4-0.8l-0.5-0.5C141.1,67.7,140.8,67.9,140.4,68.1z M149.6,64.5h2.7v-0.7h-2.7v-2.3h4v-0.7H149v8h4.9v-0.7h-4.3 V64.5z M161.2,60.9h-0.7v8h5.3v-0.7h-4.6V60.9z M173.1,60.9h-0.7v8h5.3v-0.7h-4.6V60.9z M185,64.5h2.7v-0.7H185v-2.3h4v-0.7h-4.7v8 h4.9v-0.7H185V64.5z M201.3,67.3l-5.4-6.5v8.2h0.7v-6.5l5.4,6.5v-8h-0.7V67.3z M215.2,60.9h-6.2v0.6h4.9l-5.3,7.4h6.7v-0.7h-5.4 L215.2,60.9z M226.2,64.8c0.6,1.3,1.1,2.7,1.7,4l-0.6,0.2l-1.3-3h-2.8l-1.3,3l-0.6-0.2l3.3-8C225.1,62.1,225.7,63.4,226.2,64.8z M225.8,65.4l-1.2-3c-0.1,0.2-0.1,0.4-0.2,0.6c-0.1,0.2-0.2,0.4-0.2,0.7c-0.1,0.2-0.2,0.5-0.3,0.8c-0.1,0.3-0.2,0.6-0.4,1H225.8z M5.7,3.5H0v44.4h29.6v-5.7h-24V3.5z M37.7,24.8h14.1v-5.7H37.7V9.2h20.9V3.5H32v44.4h28v-5.7H37.7V24.8z M87.3,35.7l9.3,12.2h-7.2 L76.9,31.7h-8.2v16.1h-5.7V3.5h13.1c2,0,3.8,0.4,5.5,1.2c1.7,0.8,3.1,1.8,4.4,3.1c1.2,1.3,2.2,2.8,2.9,4.5c0.7,1.7,1.1,3.4,1.1,5.2 c0,1.4-0.2,2.7-0.6,4.1c-0.4,1.3-0.9,2.6-1.7,3.7c-0.7,1.1-1.6,2.1-2.7,3c-0.7,0.6-1.5,1.1-2.3,1.6c0.6,0.8,1.2,1.6,1.9,2.4 C85.6,33.4,86.4,34.6,87.3,35.7z M68.7,26h7.5c1.1,0,2.2-0.2,3.2-0.7c1-0.4,1.9-1,2.6-1.8c0.7-0.7,1.3-1.6,1.7-2.7 c0.4-1,0.6-2.1,0.6-3.3c0-1.1-0.2-2.2-0.6-3.2c-0.4-1-1-1.9-1.7-2.7c-0.7-0.8-1.6-1.4-2.6-1.8c-1-0.4-2.1-0.7-3.2-0.7h-7.5V26z M139.4,16.9c1.2,2.7,1.7,5.7,1.7,8.8c0,3.1-0.6,6-1.7,8.8c-1.2,2.7-2.8,5.2-4.8,7.2c-2,2-4.4,3.7-7.1,4.8c-2.7,1.2-5.7,1.8-8.7,1.8 c-3.1,0-6.1-0.6-8.8-1.8c-2.7-1.2-5.2-2.8-7.2-4.8c-2-2-3.7-4.5-4.8-7.2c-1.2-2.7-1.8-5.7-1.8-8.8c0-3.1,0.6-6,1.8-8.8 c1.2-2.7,2.8-5.2,4.8-7.2c2-2,4.4-3.7,7.2-4.8c2.7-1.2,5.7-1.8,8.8-1.8c3.1,0,6,0.6,8.7,1.8c2.7,1.2,5.1,2.8,7.1,4.8 C136.6,11.8,138.2,14.2,139.4,16.9z M125.2,41.2c2-0.9,3.8-2.1,5.4-3.6c1.5-1.5,2.7-3.3,3.6-5.3c0.9-2,1.3-4.2,1.3-6.6 c0-2.3-0.4-4.6-1.3-6.6c-0.9-2-2.1-3.8-3.6-5.3c-1.5-1.5-3.3-2.7-5.4-3.6c-2-0.9-4.2-1.3-6.5-1.3c-2.3,0-4.6,0.4-6.6,1.3 c-2.1,0.9-3.9,2.1-5.4,3.6c-1.5,1.5-2.7,3.3-3.6,5.3c-0.9,2-1.3,4.2-1.3,6.6c0,2.3,0.4,4.5,1.3,6.6c0.9,2,2.1,3.8,3.6,5.3 c1.5,1.5,3.3,2.7,5.4,3.6c2.1,0.9,4.3,1.3,6.6,1.3C121,42.6,123.2,42.1,125.2,41.2z M147.7,0v47.8h5.7V16.1l13.7,17l13.6-16.8v31.5 h5.7V0.1L167.1,24L147.7,0z M228.3,47.2l-1.1,0.3c-0.6,0.2-1.1,0.3-1.4,0.4c-0.3,0.1-0.6,0.2-0.8,0.2c-0.2,0.1-0.5,0.1-0.7,0.2 c-0.2,0-0.5,0.1-0.7,0.1l-0.8,0.1l-7.2-17h-12.8l-3.1,7.5c-0.6,1.4-1.2,2.9-1.9,4.4c-0.6,1.5-1.2,3-1.7,4.3l-0.3,0.9l-0.9-0.3 c-0.3-0.1-0.6-0.2-1.1-0.3c-0.4-0.1-1.2-0.3-2.4-0.5l-1.2-0.3l19-47.2L228.3,47.2z M211.7,21.6c-0.7-1.9-1.6-4.1-2.4-6.5L205,26.2 h8.5C213,25,212.4,23.4,211.7,21.6z"></path> </svg> 